<svg xmlns="http://www.w3.org/2000/svg" xmlns:xlink="http://www.w3.org/1999/xlink" width="200" zoomAndPan="magnify" viewBox="0 0 150 30.000001" height="40" preserveAspectRatio="xMidYMid meet" version="1.0"><defs><g/></defs><g fill="#ffde59" fill-opacity="1"><g transform="translate(6.887598, 24.338752)"><g><path d="M 7.34375 -7.765625 L 5.3125 -5 L 5.3125 0 L 1.703125 0 L 1.703125 -17.5625 L 5.3125 -17.5625 L 5.3125 -11.875 L 5.15625 -9.078125 L 5.5625 -9.078125 L 7.296875 -11.875 L 11.125 -17.5625 L 15.1875 -17.5625 L 9.890625 -10.234375 L 15.640625 0 L 11.421875 0 Z M 7.34375 -7.765625 "/></g></g></g><g fill="#ffde59" fill-opacity="1"><g transform="translate(22.734469, 24.338752)"><g><path d="M 8.53125 -2.234375 L 8.125 -2.234375 C 8.019531 -1.878906 7.878906 -1.550781 7.703125 -1.25 C 7.535156 -0.957031 7.320312 -0.691406 7.0625 -0.453125 C 6.8125 -0.210938 6.519531 -0.03125 6.1875 0.09375 C 5.851562 0.226562 5.457031 0.296875 5 0.296875 C 3.832031 0.296875 2.9375 -0.0976562 2.3125 -0.890625 C 1.695312 -1.691406 1.390625 -2.800781 1.390625 -4.21875 L 1.390625 -13.203125 L 4.90625 -13.203125 L 4.90625 -4.90625 C 4.90625 -3.34375 5.453125 -2.5625 6.546875 -2.5625 C 7.078125 -2.5625 7.539062 -2.722656 7.9375 -3.046875 C 8.332031 -3.378906 8.53125 -3.835938 8.53125 -4.421875 L 8.53125 -13.203125 L 12.046875 -13.203125 L 12.046875 0 L 8.53125 0 Z M 8.53125 -2.234375 "/></g></g></g><g fill="#ffde59" fill-opacity="1"><g transform="translate(36.317502, 24.338752)"><g><path d="M 5.6875 0.296875 C 3.519531 0.296875 1.789062 -0.476562 0.5 -2.03125 L 2.59375 -4.125 C 3.394531 -2.988281 4.453125 -2.421875 5.765625 -2.421875 C 6.890625 -2.421875 7.453125 -2.875 7.453125 -3.78125 C 7.453125 -4.125 7.363281 -4.390625 7.1875 -4.578125 C 7.007812 -4.773438 6.71875 -4.914062 6.3125 -5 L 4.984375 -5.25 C 3.554688 -5.519531 2.523438 -5.96875 1.890625 -6.59375 C 1.265625 -7.226562 0.953125 -8.125 0.953125 -9.28125 C 0.953125 -10.675781 1.363281 -11.726562 2.1875 -12.4375 C 3.007812 -13.15625 4.207031 -13.515625 5.78125 -13.515625 C 6.84375 -13.515625 7.757812 -13.347656 8.53125 -13.015625 C 9.3125 -12.691406 10 -12.191406 10.59375 -11.515625 L 8.578125 -9.453125 C 7.828125 -10.347656 6.90625 -10.796875 5.8125 -10.796875 C 4.789062 -10.796875 4.28125 -10.34375 4.28125 -9.4375 C 4.28125 -9.0625 4.367188 -8.78125 4.546875 -8.59375 C 4.734375 -8.414062 5.035156 -8.285156 5.453125 -8.203125 L 6.84375 -7.953125 C 8.238281 -7.703125 9.238281 -7.273438 9.84375 -6.671875 C 10.457031 -6.078125 10.765625 -5.226562 10.765625 -4.125 C 10.765625 -2.695312 10.316406 -1.601562 9.421875 -0.84375 C 8.535156 -0.0820312 7.289062 0.296875 5.6875 0.296875 Z M 5.6875 0.296875 "/></g></g></g><g fill="#ffde59" fill-opacity="1"><g transform="translate(47.762464, 24.338752)"><g><path d="M 8.53125 -2.234375 L 8.125 -2.234375 C 8.019531 -1.878906 7.878906 -1.550781 7.703125 -1.25 C 7.535156 -0.957031 7.320312 -0.691406 7.0625 -0.453125 C 6.8125 -0.210938 6.519531 -0.03125 6.1875 0.09375 C 5.851562 0.226562 5.457031 0.296875 5 0.296875 C 3.832031 0.296875 2.9375 -0.0976562 2.3125 -0.890625 C 1.695312 -1.691406 1.390625 -2.800781 1.390625 -4.21875 L 1.390625 -13.203125 L 4.90625 -13.203125 L 4.90625 -4.90625 C 4.90625 -3.34375 5.453125 -2.5625 6.546875 -2.5625 C 7.078125 -2.5625 7.539062 -2.722656 7.9375 -3.046875 C 8.332031 -3.378906 8.53125 -3.835938 8.53125 -4.421875 L 8.53125 -13.203125 L 12.046875 -13.203125 L 12.046875 0 L 8.53125 0 Z M 8.53125 -2.234375 "/></g></g></g><g fill="#ffffff" fill-opacity="1"><g transform="translate(61.334422, 24.338752)"><g><path d="M 8.15625 0.296875 C 7.09375 0.296875 6.128906 0.140625 5.265625 -0.171875 C 4.398438 -0.492188 3.660156 -1.003906 3.046875 -1.703125 C 2.441406 -2.410156 1.96875 -3.332031 1.625 -4.46875 C 1.28125 -5.613281 1.109375 -7.007812 1.109375 -8.65625 C 1.109375 -10.300781 1.28125 -11.703125 1.625 -12.859375 C 1.96875 -14.023438 2.441406 -14.976562 3.046875 -15.71875 C 3.660156 -16.457031 4.398438 -17 5.265625 -17.34375 C 6.128906 -17.6875 7.09375 -17.859375 8.15625 -17.859375 C 9.726562 -17.859375 10.96875 -17.519531 11.875 -16.84375 C 12.789062 -16.164062 13.546875 -15.140625 14.140625 -13.765625 L 11.015625 -12.15625 C 10.921875 -12.519531 10.804688 -12.859375 10.671875 -13.171875 C 10.546875 -13.492188 10.375 -13.765625 10.15625 -13.984375 C 9.945312 -14.203125 9.675781 -14.375 9.34375 -14.5 C 9.019531 -14.625 8.625 -14.6875 8.15625 -14.6875 C 7.144531 -14.6875 6.351562 -14.382812 5.78125 -13.78125 C 5.21875 -13.175781 4.9375 -12.269531 4.9375 -11.0625 L 4.9375 -6.484375 C 4.9375 -5.273438 5.21875 -4.367188 5.78125 -3.765625 C 6.351562 -3.171875 7.144531 -2.875 8.15625 -2.875 C 8.625 -2.875 9.03125 -2.941406 9.375 -3.078125 C 9.71875 -3.222656 10.003906 -3.414062 10.234375 -3.65625 C 10.472656 -3.90625 10.664062 -4.191406 10.8125 -4.515625 C 10.96875 -4.835938 11.101562 -5.191406 11.21875 -5.578125 L 14.1875 -3.875 C 13.882812 -3.21875 13.546875 -2.628906 13.171875 -2.109375 C 12.804688 -1.585938 12.382812 -1.144531 11.90625 -0.78125 C 11.425781 -0.425781 10.875 -0.160156 10.25 0.015625 C 9.632812 0.203125 8.9375 0.296875 8.15625 0.296875 Z M 8.15625 0.296875 "/></g></g></g><g fill="#ffffff" fill-opacity="1"><g transform="translate(76.149984, 24.338752)"><g><path d="M 6.390625 0.296875 C 4.546875 0.296875 3.148438 -0.257812 2.203125 -1.375 C 1.253906 -2.5 0.78125 -4.238281 0.78125 -6.59375 C 0.78125 -8.9375 1.253906 -10.675781 2.203125 -11.8125 C 3.148438 -12.945312 4.546875 -13.515625 6.390625 -13.515625 C 8.234375 -13.515625 9.628906 -12.945312 10.578125 -11.8125 C 11.523438 -10.675781 12 -8.9375 12 -6.59375 C 12 -4.238281 11.523438 -2.5 10.578125 -1.375 C 9.628906 -0.257812 8.234375 0.296875 6.390625 0.296875 Z M 6.390625 -2.484375 C 7.679688 -2.484375 8.328125 -3.238281 8.328125 -4.75 L 8.328125 -8.453125 C 8.328125 -9.960938 7.679688 -10.71875 6.390625 -10.71875 C 5.097656 -10.71875 4.453125 -9.960938 4.453125 -8.453125 L 4.453125 -4.75 C 4.453125 -3.238281 5.097656 -2.484375 6.390625 -2.484375 Z M 6.390625 -2.484375 "/></g></g></g><g fill="#ffffff" fill-opacity="1"><g transform="translate(88.928091, 24.338752)"><g><path d="M 1.53125 0 L 1.53125 -13.203125 L 5.0625 -13.203125 L 5.0625 -10.96875 L 5.453125 -10.96875 C 5.554688 -11.320312 5.691406 -11.648438 5.859375 -11.953125 C 6.023438 -12.253906 6.234375 -12.519531 6.484375 -12.75 C 6.742188 -12.988281 7.039062 -13.175781 7.375 -13.3125 C 7.707031 -13.445312 8.09375 -13.515625 8.53125 -13.515625 C 9.71875 -13.515625 10.625 -13.113281 11.25 -12.3125 C 11.882812 -11.519531 12.203125 -10.410156 12.203125 -8.984375 L 12.203125 0 L 8.671875 0 L 8.671875 -8.296875 C 8.671875 -9.859375 8.128906 -10.640625 7.046875 -10.640625 C 6.503906 -10.640625 6.035156 -10.472656 5.640625 -10.140625 C 5.253906 -9.816406 5.0625 -9.363281 5.0625 -8.78125 L 5.0625 0 Z M 1.53125 0 "/></g></g></g><g fill="#ffffff" fill-opacity="1"><g transform="translate(102.511124, 24.338752)"><g><path d="M 5.6875 0.296875 C 3.519531 0.296875 1.789062 -0.476562 0.5 -2.03125 L 2.59375 -4.125 C 3.394531 -2.988281 4.453125 -2.421875 5.765625 -2.421875 C 6.890625 -2.421875 7.453125 -2.875 7.453125 -3.78125 C 7.453125 -4.125 7.363281 -4.390625 7.1875 -4.578125 C 7.007812 -4.773438 6.71875 -4.914062 6.3125 -5 L 4.984375 -5.25 C 3.554688 -5.519531 2.523438 -5.96875 1.890625 -6.59375 C 1.265625 -7.226562 0.953125 -8.125 0.953125 -9.28125 C 0.953125 -10.675781 1.363281 -11.726562 2.1875 -12.4375 C 3.007812 -13.15625 4.207031 -13.515625 5.78125 -13.515625 C 6.84375 -13.515625 7.757812 -13.347656 8.53125 -13.015625 C 9.3125 -12.691406 10 -12.191406 10.59375 -11.515625 L 8.578125 -9.453125 C 7.828125 -10.347656 6.90625 -10.796875 5.8125 -10.796875 C 4.789062 -10.796875 4.28125 -10.34375 4.28125 -9.4375 C 4.28125 -9.0625 4.367188 -8.78125 4.546875 -8.59375 C 4.734375 -8.414062 5.035156 -8.285156 5.453125 -8.203125 L 6.84375 -7.953125 C 8.238281 -7.703125 9.238281 -7.273438 9.84375 -6.671875 C 10.457031 -6.078125 10.765625 -5.226562 10.765625 -4.125 C 10.765625 -2.695312 10.316406 -1.601562 9.421875 -0.84375 C 8.535156 -0.0820312 7.289062 0.296875 5.6875 0.296875 Z M 5.6875 0.296875 "/></g></g></g><g fill="#ffffff" fill-opacity="1"><g transform="translate(113.956087, 24.338752)"><g><path d="M 8.53125 -2.234375 L 8.125 -2.234375 C 8.019531 -1.878906 7.878906 -1.550781 7.703125 -1.25 C 7.535156 -0.957031 7.320312 -0.691406 7.0625 -0.453125 C 6.8125 -0.210938 6.519531 -0.03125 6.1875 0.09375 C 5.851562 0.226562 5.457031 0.296875 5 0.296875 C 3.832031 0.296875 2.9375 -0.0976562 2.3125 -0.890625 C 1.695312 -1.691406 1.390625 -2.800781 1.390625 -4.21875 L 1.390625 -13.203125 L 4.90625 -13.203125 L 4.90625 -4.90625 C 4.90625 -3.34375 5.453125 -2.5625 6.546875 -2.5625 C 7.078125 -2.5625 7.539062 -2.722656 7.9375 -3.046875 C 8.332031 -3.378906 8.53125 -3.835938 8.53125 -4.421875 L 8.53125 -13.203125 L 12.046875 -13.203125 L 12.046875 0 L 8.53125 0 Z M 8.53125 -2.234375 "/></g></g></g><g fill="#ffffff" fill-opacity="1"><g transform="translate(127.53912, 24.338752)"><g><path d="M 4.953125 0 C 3.734375 0 2.859375 -0.269531 2.328125 -0.8125 C 1.796875 -1.363281 1.53125 -2.203125 1.53125 -3.328125 L 1.53125 -18.609375 L 5.0625 -18.609375 L 5.0625 -2.734375 L 6.546875 -2.734375 L 6.546875 0 Z M 4.953125 0 "/></g></g></g><g fill="#ffffff" fill-opacity="1"><g transform="translate(134.506711, 24.338752)"><g><path d="M 5.609375 0 C 4.398438 0 3.519531 -0.265625 2.96875 -0.796875 C 2.425781 -1.335938 2.15625 -2.195312 2.15625 -3.375 L 2.15625 -10.46875 L 0.5 -10.46875 L 0.5 -13.203125 L 1.3125 -13.203125 C 1.78125 -13.203125 2.097656 -13.300781 2.265625 -13.5 C 2.429688 -13.707031 2.515625 -14.035156 2.515625 -14.484375 L 2.515625 -16.78125 L 5.6875 -16.78125 L 5.6875 -13.203125 L 8 -13.203125 L 8 -10.46875 L 5.6875 -10.46875 L 5.6875 -2.734375 L 7.75 -2.734375 L 7.75 0 Z M 5.609375 0 "/></g></g></g></svg>