<svg xmlns="http://www.w3.org/2000/svg" xmlns:xlink="http://www.w3.org/1999/xlink" width="200" zoomAndPan="magnify" viewBox="0 0 150 37.5" height="50" preserveAspectRatio="xMidYMid meet" version="1.0"><defs><g/></defs><g fill="#ffde59" fill-opacity="1"><g transform="translate(4.340563, 31.500629)"><g><path d="M 9.59375 -10.15625 L 6.9375 -6.53125 L 6.9375 0 L 2.234375 0 L 2.234375 -22.9375 L 6.9375 -22.9375 L 6.9375 -15.515625 L 6.734375 -11.859375 L 7.265625 -11.859375 L 9.53125 -15.515625 L 14.53125 -22.9375 L 19.84375 -22.9375 L 12.90625 -13.375 L 20.4375 0 L 14.921875 0 Z M 9.59375 -10.15625 "/></g></g></g><g fill="#ffffff" fill-opacity="1"><g transform="translate(25.029553, 31.500629)"><g><path d="M 0.09375 4.96875 L 9.03125 -24.3125 L 12.8125 -24.3125 L 3.875 4.96875 Z M 0.09375 4.96875 "/></g></g></g><g fill="#ffffff" fill-opacity="1"><g transform="translate(38.889424, 31.500629)"><g><path d="M 10.640625 0.390625 C 9.265625 0.390625 8.007812 0.179688 6.875 -0.234375 C 5.75 -0.648438 4.785156 -1.316406 3.984375 -2.234375 C 3.191406 -3.148438 2.570312 -4.351562 2.125 -5.84375 C 1.675781 -7.332031 1.453125 -9.148438 1.453125 -11.296875 C 1.453125 -13.453125 1.675781 -15.289062 2.125 -16.8125 C 2.570312 -18.332031 3.191406 -19.570312 3.984375 -20.53125 C 4.785156 -21.5 5.75 -22.207031 6.875 -22.65625 C 8.007812 -23.101562 9.265625 -23.328125 10.640625 -23.328125 C 12.703125 -23.328125 14.328125 -22.882812 15.515625 -22 C 16.710938 -21.113281 17.695312 -19.769531 18.46875 -17.96875 L 14.390625 -15.875 C 14.253906 -16.351562 14.101562 -16.800781 13.9375 -17.21875 C 13.78125 -17.632812 13.554688 -17.984375 13.265625 -18.265625 C 12.984375 -18.554688 12.628906 -18.78125 12.203125 -18.9375 C 11.773438 -19.101562 11.253906 -19.1875 10.640625 -19.1875 C 9.328125 -19.1875 8.296875 -18.789062 7.546875 -18 C 6.804688 -17.21875 6.4375 -16.035156 6.4375 -14.453125 L 6.4375 -8.484375 C 6.4375 -6.898438 6.804688 -5.710938 7.546875 -4.921875 C 8.296875 -4.140625 9.328125 -3.75 10.640625 -3.75 C 11.253906 -3.75 11.785156 -3.835938 12.234375 -4.015625 C 12.679688 -4.203125 13.054688 -4.453125 13.359375 -4.765625 C 13.671875 -5.085938 13.925781 -5.460938 14.125 -5.890625 C 14.320312 -6.316406 14.5 -6.785156 14.65625 -7.296875 L 18.53125 -5.0625 C 18.132812 -4.207031 17.695312 -3.4375 17.21875 -2.75 C 16.738281 -2.070312 16.1875 -1.5 15.5625 -1.03125 C 14.9375 -0.5625 14.21875 -0.207031 13.40625 0.03125 C 12.59375 0.269531 11.671875 0.390625 10.640625 0.390625 Z M 10.640625 0.390625 "/></g></g></g><g fill="#ffffff" fill-opacity="1"><g transform="translate(58.234125, 31.500629)"><g><path d="M 8.34375 0.390625 C 5.9375 0.390625 4.113281 -0.34375 2.875 -1.8125 C 1.632812 -3.28125 1.015625 -5.546875 1.015625 -8.609375 C 1.015625 -11.671875 1.632812 -13.941406 2.875 -15.421875 C 4.113281 -16.898438 5.9375 -17.640625 8.34375 -17.640625 C 10.75 -17.640625 12.570312 -16.898438 13.8125 -15.421875 C 15.050781 -13.941406 15.671875 -11.671875 15.671875 -8.609375 C 15.671875 -5.546875 15.050781 -3.28125 13.8125 -1.8125 C 12.570312 -0.34375 10.75 0.390625 8.34375 0.390625 Z M 8.34375 -3.25 C 10.03125 -3.25 10.875 -4.234375 10.875 -6.203125 L 10.875 -11.046875 C 10.875 -13.015625 10.03125 -14 8.34375 -14 C 6.65625 -14 5.8125 -13.015625 5.8125 -11.046875 L 5.8125 -6.203125 C 5.8125 -4.234375 6.65625 -3.25 8.34375 -3.25 Z M 8.34375 -3.25 "/></g></g></g><g fill="#ffffff" fill-opacity="1"><g transform="translate(74.918514, 31.500629)"><g><path d="M 2 0 L 2 -17.25 L 6.609375 -17.25 L 6.609375 -14.328125 L 7.125 -14.328125 C 7.257812 -14.785156 7.4375 -15.210938 7.65625 -15.609375 C 7.875 -16.003906 8.144531 -16.351562 8.46875 -16.65625 C 8.800781 -16.96875 9.1875 -17.207031 9.625 -17.375 C 10.0625 -17.550781 10.566406 -17.640625 11.140625 -17.640625 C 12.691406 -17.640625 13.878906 -17.117188 14.703125 -16.078125 C 15.523438 -15.046875 15.9375 -13.597656 15.9375 -11.734375 L 15.9375 0 L 11.34375 0 L 11.34375 -10.84375 C 11.34375 -12.882812 10.628906 -13.90625 9.203125 -13.90625 C 8.503906 -13.90625 7.894531 -13.691406 7.375 -13.265625 C 6.863281 -12.835938 6.609375 -12.238281 6.609375 -11.46875 L 6.609375 0 Z M 2 0 "/></g></g></g><g fill="#ffffff" fill-opacity="1"><g transform="translate(92.653889, 31.500629)"><g><path d="M 7.421875 0.390625 C 4.597656 0.390625 2.34375 -0.625 0.65625 -2.65625 L 3.390625 -5.390625 C 4.441406 -3.898438 5.820312 -3.15625 7.53125 -3.15625 C 8.988281 -3.15625 9.71875 -3.742188 9.71875 -4.921875 C 9.71875 -5.390625 9.601562 -5.75 9.375 -6 C 9.144531 -6.25 8.769531 -6.425781 8.25 -6.53125 L 6.5 -6.875 C 4.644531 -7.21875 3.304688 -7.800781 2.484375 -8.625 C 1.660156 -9.445312 1.25 -10.613281 1.25 -12.125 C 1.25 -13.945312 1.785156 -15.320312 2.859375 -16.25 C 3.929688 -17.175781 5.5 -17.640625 7.5625 -17.640625 C 8.9375 -17.640625 10.132812 -17.425781 11.15625 -17 C 12.175781 -16.570312 13.066406 -15.921875 13.828125 -15.046875 L 11.203125 -12.359375 C 10.210938 -13.515625 9.007812 -14.09375 7.59375 -14.09375 C 6.257812 -14.09375 5.59375 -13.503906 5.59375 -12.328125 C 5.59375 -11.835938 5.710938 -11.472656 5.953125 -11.234375 C 6.191406 -10.992188 6.582031 -10.820312 7.125 -10.71875 L 8.9375 -10.390625 C 10.757812 -10.054688 12.066406 -9.5 12.859375 -8.71875 C 13.660156 -7.945312 14.0625 -6.835938 14.0625 -5.390625 C 14.0625 -3.523438 13.476562 -2.09375 12.3125 -1.09375 C 11.15625 -0.101562 9.523438 0.390625 7.421875 0.390625 Z M 7.421875 0.390625 "/></g></g></g><g fill="#ffffff" fill-opacity="1"><g transform="translate(107.597588, 31.500629)"><g><path d="M 11.140625 -2.921875 L 10.609375 -2.921875 C 10.484375 -2.460938 10.300781 -2.035156 10.0625 -1.640625 C 9.832031 -1.242188 9.550781 -0.890625 9.21875 -0.578125 C 8.894531 -0.273438 8.515625 -0.0390625 8.078125 0.125 C 7.640625 0.300781 7.125 0.390625 6.53125 0.390625 C 5 0.390625 3.828125 -0.128906 3.015625 -1.171875 C 2.210938 -2.210938 1.8125 -3.660156 1.8125 -5.515625 L 1.8125 -17.25 L 6.40625 -17.25 L 6.40625 -6.40625 C 6.40625 -4.375 7.117188 -3.359375 8.546875 -3.359375 C 9.242188 -3.359375 9.847656 -3.570312 10.359375 -4 C 10.878906 -4.425781 11.140625 -5.019531 11.140625 -5.78125 L 11.140625 -17.25 L 15.734375 -17.25 L 15.734375 0 L 11.140625 0 Z M 11.140625 -2.921875 "/></g></g></g><g fill="#ffffff" fill-opacity="1"><g transform="translate(125.332963, 31.500629)"><g><path d="M 6.46875 0 C 4.875 0 3.726562 -0.351562 3.03125 -1.0625 C 2.34375 -1.78125 2 -2.875 2 -4.34375 L 2 -24.3125 L 6.609375 -24.3125 L 6.609375 -3.578125 L 8.546875 -3.578125 L 8.546875 0 Z M 6.46875 0 "/></g></g></g><g fill="#ffffff" fill-opacity="1"><g transform="translate(134.430552, 31.500629)"><g><path d="M 7.328125 0 C 5.753906 0 4.609375 -0.347656 3.890625 -1.046875 C 3.179688 -1.753906 2.828125 -2.875 2.828125 -4.40625 L 2.828125 -13.671875 L 0.65625 -13.671875 L 0.65625 -17.25 L 1.703125 -17.25 C 2.316406 -17.25 2.734375 -17.378906 2.953125 -17.640625 C 3.171875 -17.910156 3.28125 -18.335938 3.28125 -18.921875 L 3.28125 -21.921875 L 7.421875 -21.921875 L 7.421875 -17.25 L 10.453125 -17.25 L 10.453125 -13.671875 L 7.421875 -13.671875 L 7.421875 -3.578125 L 10.125 -3.578125 L 10.125 0 Z M 7.328125 0 "/></g></g></g></svg>